<svg width="16" height="16" xmlns="http://www.w3.org/2000/svg">

 <g>
  <title>background</title>
  <rect fill="none" id="canvas_background" height="18" width="18" y="-1" x="-1"/>
 </g>
 <g>
  <title>Layer 1</title>
  <path fill="#ff9800" stroke="null" id="svg_1" d="m5.228766,3.851462q0,-0.504081 -0.359536,-0.860742t-0.867681,-0.356661t-0.867681,0.356661t-0.359536,0.860742t0.359536,0.860742t0.867681,0.356661t0.867681,-0.356661t0.359536,-0.860742zm10.230004,5.478313q0,0.504081 -0.354742,0.855986l-4.707528,4.679392q-0.373918,0.351906 -0.872475,0.351906q-0.508145,0 -0.862887,-0.351906l-6.855158,-6.809848q-0.36433,-0.351906 -0.618402,-0.960607t-0.254072,-1.112782l0,-3.956559q0,-0.49457 0.36433,-0.855986t0.862887,-0.361416l3.988455,0q0.508145,0 1.121753,0.25204t0.977939,0.613457l6.855158,6.790826q0.354742,0.370927 0.354742,0.865497z"/>
 </g>
</svg>