<svg xmlns="http://www.w3.org/2000/svg" width="22" height="24" viewBox="0 0 22 24">
    <g fill="#333" fill-rule="nonzero">
        <path d="M11.444 2.345a.999.999 0 0 0-.887 0l-8.002 4A1 1 0 0 0 2 7.24v9.527c-.003.38.21.729.547.899l8 4a1 1 0 0 0 .896 0l8.002-4.002A1 1 0 0 0 20 16.77V7.24a1 1 0 0 0-.557-.896l-7.999-3.999zm.891-1.79l8 4A3 3 0 0 1 22 7.24v9.53a3 3 0 0 1-1.663 2.684l-8 4a3 3 0 0 1-2.684 0L1.65 19.453A2.997 2.997 0 0 1 0 16.76V7.24a3 3 0 0 1 1.663-2.684L9.665.554a3 3 0 0 1 2.67 0z"/>
        <path d="M20.233 5.266a1 1 0 0 1 .894 1.788l-9.68 4.84a1 1 0 0 1-.894 0l-9.68-4.84a1 1 0 1 1 .894-1.788L11 9.882l9.233-4.616z"/>
        <path d="M12 22.76a1 1 0 0 1-2 0V11a1 1 0 0 1 2 0v11.76z"/>
    </g>
</svg>
