<svg width="16" height="16" xmlns="http://www.w3.org/2000/svg">

 <g>
  <title>background</title>
  <rect fill="none" id="canvas_background" height="18" width="18" y="-1" x="-1"/>
 </g>
 <g>
  <title>Layer 1</title>
  <path stroke="null" id="svg_7" d="m15.529461,4.420678l-4.935768,0l-2.307521,-3.543355c-0.057924,-0.088999 -0.142663,-0.140298 -0.231932,-0.140298l-0.000358,0c-0.089269,0.000155 -0.174127,0.051614 -0.231932,0.140918l-2.297633,3.542734l-5.006323,0c-0.168526,0 -0.30511,0.17924 -0.30511,0.400397l0,8.968888c0,0.221157 0.136584,0.400397 0.30511,0.400397l15.011467,0c0.168526,0 0.30511,-0.17924 0.30511,-0.400397l0,-8.968888c0,-0.221157 -0.136584,-0.400397 -0.30511,-0.400397zm-7.474747,-2.666239l2.195734,2.666239l-3.924852,0l1.729119,-2.666239zm7.169637,11.635126l-14.401242,0l0,-8.168093l14.401242,0l0,8.168093zm0,0"/>
  <path stroke="null" id="svg_9" d="m2.846463,10.917235c0.18393,0 0.333708,-0.149887 0.333708,-0.333952s-0.149778,-0.333952 -0.333708,-0.333952s-0.333708,0.149887 -0.333708,0.333952s0.149778,0.333952 0.333708,0.333952z"/>
  <path stroke="null" id="svg_10" d="m5.517389,6.515055l5.041419,0c0.138934,0 0.252071,0.173667 0.252071,0.386935s-0.113137,0.386935 -0.252071,0.386935l-5.041419,0c-0.138934,0 -0.252071,-0.173667 -0.252071,-0.386935s0.113137,-0.386935 0.252071,-0.386935zm0,0"/>
  <path stroke="null" id="svg_13" d="m2.87059,9.566212c0.18393,0 0.33371,-0.14989 0.33371,-0.33396s-0.14978,-0.33395 -0.33371,-0.33395s-0.33371,0.14989 -0.33371,0.33395s0.14978,0.33396 0.33371,0.33396z"/>
  <path stroke="null" id="svg_14" d="m2.846465,12.22001c0.18393,0 0.33371,-0.14989 0.33371,-0.33395s-0.14978,-0.33396 -0.33371,-0.33396s-0.33371,0.14989 -0.33371,0.33396s0.14978,0.33395 0.33371,0.33395z"/>
  <path stroke="null" id="svg_15" d="m4.133467,8.724496l8.24352,0c0.22718,0 0.41218,0.17366 0.41218,0.38693s-0.185,0.38694 -0.41218,0.38694l-8.24352,0c-0.22718,0 -0.41218,-0.17367 -0.41218,-0.38694s0.185,-0.38693 0.41218,-0.38693zm0,0"/>
  <path stroke="null" id="svg_16" d="m4.133467,10.147898l8.24352,0c0.22718,0 0.41218,0.17366 0.41218,0.38693s-0.185,0.38694 -0.41218,0.38694l-8.24352,0c-0.22718,0 -0.41218,-0.17367 -0.41218,-0.38694s0.185,-0.38693 0.41218,-0.38693zm0,0"/>
  <path stroke="null" id="svg_17" d="m4.133467,11.484903l8.24352,0c0.22718,0 0.41218,0.17366 0.41218,0.38693s-0.185,0.38694 -0.41218,0.38694l-8.24352,0c-0.22718,0 -0.41218,-0.17367 -0.41218,-0.38694s0.185,-0.38693 0.41218,-0.38693zm0,0"/>
 </g>
</svg>