<?xml version="1.0" ?><!DOCTYPE svg  PUBLIC '-//W3C//DTD SVG 1.1//EN'  'http://www.w3.org/Graphics/SVG/1.1/DTD/svg11.dtd'><svg height="8.0433mm" style="shape-rendering:geometricPrecision; text-rendering:geometricPrecision; image-rendering:optimizeQuality; fill-rule:evenodd; clip-rule:evenodd" version="1.1" viewBox="0 0 23353 26754" width="7.021mm" xml:space="preserve" xmlns="http://www.w3.org/2000/svg" xmlns:xlink="http://www.w3.org/1999/xlink"><defs><style type="text/css">
   <![CDATA[
    .fil0 {fill:black;fill-rule:nonzero}
   ]]>
  </style></defs><g id="Layer_x0020_1"><path class="fil0" d="M13029 3478c2059,237 3955,1011 5545,2177l1631 -1817 1873 1683 -1645 1832c1817,2058 2920,4762 2920,7724 0,6448 -5228,11677 -11676,11677 -6449,0 -11677,-5229 -11677,-11677 0,-5997 4552,-11028 10511,-11619l0 -1137 -2912 0 0 -2321 8343 0 0 2321 -2913 0 0 1157zm-2598 14132c2571,1928 5501,-1982 2930,-3909 -866,-651 -5389,-1681 -6808,-2050 752,1257 3011,5312 3878,5959zm7664 -8952c-1642,-1641 -3912,-2658 -6418,-2658 -5014,0 -9077,4063 -9077,9077 0,5013 4063,9076 9077,9076 5013,0 9076,-4063 9076,-9076 0,-2507 -1016,-4776 -2658,-6419z"/></g></svg>