<svg width="16" height="16" xmlns="http://www.w3.org/2000/svg">
  <path fill="#333" fill-rule="nonzero" d="m14.772668,3.671037a2.932175,3.069792 0 0 0 -0.863789,-2.184772a3.022274,3.164119 0 0 0 -4.175585,0l-2.098392,2.197662l-0.704139,-0.737067a0.978348,1.024266 0 1 0 -1.383588,1.448525l0.70422,0.737272l-4.890323,5.11875a0.977729,1.023617 0 0 0 -0.286652,0.724262l0,2.922044a0.977892,1.023788 0 0 0 0.978446,1.024368l2.791051,0a0.977729,1.023617 0 0 0 0.691794,-0.300106l4.889394,-5.119843l0.70422,0.737272a0.978348,1.024266 0 0 0 1.383556,-1.448525l-0.70409,-0.737135l2.099142,-2.196911a2.933072,3.070731 0 0 0 0.864735,-2.185797zm-10.333877,9.20224l-1.407479,0l0,-1.473451l4.603671,-4.81873l1.406517,1.472529l-4.602709,4.819652z"/>
</svg>