<svg width="23.999999999999996" height="23.999999999999996" xmlns="http://www.w3.org/2000/svg">

 <g>
  <title>background</title>
  <rect fill="none" id="canvas_background" height="26" width="26" y="-1" x="-1"/>
 </g>
 <g>
  <title>Layer 1</title>
  <path stroke="null" transform="rotate(-0.03752222657203674 11.999170303341971,11.927302360534537) " fill="#222222" id="text2985" d="m11.999171,-0.001486c-6.609698,0 -11.997836,5.35713 -11.997836,11.928788c0,6.571659 5.388138,11.928788 11.997836,11.928788c6.609698,0 11.997836,-5.357129 11.997836,-11.928788c0,-6.571658 -5.388138,-11.928788 -11.997836,-11.928788zm0,2.773443c5.101765,0 9.206465,4.082941 9.206465,9.155345c0,5.072404 -4.1047,9.153481 -9.206465,9.153481c-5.101764,0 -9.208339,-4.081077 -9.208339,-9.153481c0,-5.072403 4.106575,-9.155345 9.208339,-9.155345zm0.24933,3.045569c-2.347518,-0.04809 -4.710104,1.517104 -5.305293,3.819076c-0.613075,2.002541 -0.443068,4.305624 0.624262,6.120959c0.925958,1.44847 2.640132,2.289084 4.35484,2.268334c1.178466,0.043264 2.409509,-0.082539 3.479372,-0.579665c0.491484,-0.463322 0.138334,-1.197093 0.275575,-1.768816c0.044079,-0.373071 -0.313601,-0.792618 -0.704873,-0.613214c-1.340834,0.344153 -2.870387,0.697427 -4.161749,0.042869c-1.129596,-0.663786 -1.426089,-2.091781 -1.385375,-3.304647c0.00674,-1.180777 0.422928,-2.512446 1.542847,-3.090302c1.169952,-0.591005 2.559185,-0.29066 3.698708,0.214345c0.53339,0.069231 0.925596,-0.423448 1.016067,-0.892795c0.187112,-0.400387 0.393854,-0.792488 0.560524,-1.202198c-1.196348,-0.710995 -2.601214,-1.04518 -3.994904,-1.013947z"/>
 </g>
</svg>