<svg xmlns="http://www.w3.org/2000/svg" width="17" height="17" viewBox="0 0 17 17">
    <g fill="none" fill-rule="evenodd">
        <path d="M0 0h17v17H0z" opacity=".4"/>
        <path fill="#999" fill-rule="nonzero" d="M1.5 3H5v-.5A2.5 2.5 0 0 1 7.5 0h2A2.5 2.5 0 0 1 12 2.5V3h3.5a1 1 0 0 1 0 2H15v9.5a2.5 2.5 0 0 1-2.5 2.5h-8A2.5 2.5 0 0 1 2 14.5V5h-.5a1 1 0 1 1 0-2zM7 3h3v-.5a.5.5 0 0 0-.5-.5h-2a.5.5 0 0 0-.5.5V3zm6 2H4v9.5a.5.5 0 0 0 .5.5h8a.5.5 0 0 0 .5-.5V5zM6 8a1 1 0 1 1 2 0v4a1 1 0 0 1-2 0V8zm3 0a1 1 0 1 1 2 0v4a1 1 0 0 1-2 0V8z"/>
    </g>
</svg>
