<svg width="22" height="22" xmlns="http://www.w3.org/2000/svg">

 <g>
  <title>background</title>
  <rect fill="none" id="canvas_background" height="24" width="24" y="-1" x="-1"/>
 </g>
 <g>
  <title>Layer 1</title>
  <path fill="#ffffff" stroke="null" id="svg_1" d="m10.076187,13.821114l0,-12.452952a1.086176,1.074457 0 0 1 2.172353,0l0,12.452952l3.584382,-3.545707a1.086176,1.074457 0 0 1 1.520647,1.525728l-5.430882,5.372283a1.086176,1.074457 0 0 1 -1.520647,0l-5.430882,-5.372283a1.086176,1.074457 0 0 1 1.520647,-1.525728l3.584382,3.545707zm-8.689412,2.58944a1.086176,1.074457 0 0 1 2.172353,0l0,3.22337l15.20647,0l0,-3.22337a1.086176,1.074457 0 0 1 2.172353,0l0,3.22337a2.172353,2.148913 0 0 1 -2.172353,2.148913l-15.20647,0a2.172353,2.148913 0 0 1 -2.172353,-2.148913l0,-3.22337z" class="heroicon-ui"/>
 </g>
</svg>