<svg width="19" height="18" xmlns="http://www.w3.org/2000/svg" xmlns:svg="http://www.w3.org/2000/svg">
 <g class="layer">
  <title>background</title>
  <rect fill="none" height="24" id="canvas_background" width="24" x="-1" y="-1"/>
 </g>
 <g class="layer">
  <title>Layer 1</title>
  <path class="heroicon-ui" d="m8.40952,10.70936l0,-9.555a0.96207,0.82442 0 0 1 1.92412,0l0,9.555l3.17481,-2.72057a0.96207,0.82442 0 0 1 1.34689,1.17067l-4.81031,4.1221a0.96207,0.82442 0 0 1 -1.34689,0l-4.81031,-4.1221a0.96207,0.82442 0 0 1 1.34688,-1.17067l3.17481,2.72057zm-7.6965,1.98685a0.96207,0.82442 0 0 1 1.92412,0l0,2.47325l13.46888,0l0,-2.47325a0.96207,0.82442 0 0 1 1.92412,0l0,2.47325a1.92412,1.64883 0 0 1 -1.92412,1.64884l-13.46888,0a1.92412,1.64883 0 0 1 -1.92412,-1.64884l0,-2.47325z" fill="#1d70f7" id="svg_1" stroke="null"/>
 </g>
</svg>