<svg xmlns="http://www.w3.org/2000/svg" width="15" height="15" viewBox="0 0 15 15">
    <g fill="none" fill-rule="evenodd">
        <path d="M-1 0h16v16H-1z" opacity=".4"/>
        <path fill="#1d7b33" fill-rule="nonzero" d="M11.997 9.108a1 1 0 0 1 2 0v3.559A2.333 2.333 0 0 1 11.664 15H2.333A2.333 2.333 0 0 1 0 12.667V3.336a2.333 2.333 0 0 1 2.333-2.333h3.56a1 1 0 1 1 0 2h-3.56A.333.333 0 0 0 2 3.336v9.331c0 .184.15.333.333.333h9.331c.184 0 .333-.15.333-.333v-3.56zm.139-8.815l2.571 2.571a1 1 0 0 1 0 1.415L8.28 10.707A1 1 0 0 1 7.57 11H5a1 1 0 0 1-1-1V7.429a1 1 0 0 1 .293-.708L10.72.293a1 1 0 0 1 1.415 0zM6 7.843V9h1.157l5.429-5.429-1.157-1.157L6 7.843z"/>
    </g>
</svg>
