<svg xmlns="http://www.w3.org/2000/svg" width="24" height="18" viewBox="0 0 24 18">
    <path fill="#1D70F7" fill-rule="nonzero"
          d="M0.10646576207387262,8.553 c0.14,-0.281 0.404,-0.7500000000000001 0.788,-1.346 a20.492,20.492 0 0 1 2.251,-2.89 C5.661465762073873,1.6310000000000002 8.620465762073874,0 12.000465762073873,0 c3.38,0 6.339,1.6320000000000001 8.855,4.316 a20.492,20.492 0 0 1 2.25,2.891 c0.38500000000000006,0.5960000000000001 0.6490000000000001,1.065 0.79,1.346 a1,1 0 0 1 0,0.8940000000000001 c-0.14100000000000001,0.281 -0.405,0.7500000000000001 -0.79,1.346 a20.492,20.492 0 0 1 -2.25,2.89 C18.33946576207387,16.369 15.380465762073873,18 12.000465762073873,18 c-3.38,0 -6.339,-1.6320000000000001 -8.855,-4.316 a20.492,20.492 0 0 1 -2.25,-2.891 a15.188,15.188 0 0 1 -0.79,-1.346 a1,1 0 0 1 0,-0.8940000000000001 zm2.468,1.154 c0.5750000000000001,0.8900000000000001 1.254,1.7810000000000001 2.03,2.6100000000000003 C6.777465762073873,14.631 9.255465762073873,16 12.000465762073873,16 c2.745,0 5.224,-1.368 7.3950000000000005,-3.684 A18.513,18.513 0 0 0 21.860465762073872,9 a18.513,18.513 0 0 0 -2.464,-3.316 C17.224465762073873,3.368 14.745465762073874,2 12.000465762073873,2 C9.255465762073873,2 6.776465762073872,3.368 4.605465762073873,5.684 A18.513,18.513 0 0 0 2.1404657620738727,9 c0.126,0.21800000000000003 0.27,0.455 0.43300000000000005,0.7070000000000001 zM12.000465762073873,13 a4,4 0 1 1 0,-8 a4,4 0 0 1 0,8 zm0,-2 a2,2 0 1 0 0,-4 a2,2 0 0 0 0,4 z"
          id="svg_1" class=""/>
    <path fill="#1D70F7" fill-opacity="1" stroke="#1D70F7" stroke-opacity="1" stroke-width="2"
          stroke-dasharray="none" stroke-linejoin="round" stroke-linecap="butt" stroke-dashoffset=""
          fill-rule="nonzero" opacity="1" marker-start="" marker-mid="" marker-end=""
          d="M-0.08163265306122724,17.938775510204078L24.244897959183668,0.14285714285714235" id="svg_2"/>
</svg>