<svg xmlns="http://www.w3.org/2000/svg" width="18" height="22" viewBox="0 0 18 22">
    <g fill="#AEAEAE" fill-rule="evenodd">
        <path fill-rule="nonzero" d="M8 15H6a1 1 0 0 1 0-2h2v-2a1 1 0 0 1 2 0v2h2a1 1 0 0 1 0 2h-2v2a1 1 0 0 1-2 0v-2zm3-15a1 1 0 0 1 .707.293l6 6A1 1 0 0 1 18 7v12a3 3 0 0 1-3 3H3a3 3 0 0 1-3-3V3a3 3 0 0 1 3-3h8zm-.414 2H3a1 1 0 0 0-1 1v16a1 1 0 0 0 1 1h12a1 1 0 0 0 1-1V7.414L10.586 2z"/>
        <path d="M12 6h5a1 1 0 0 1 0 2h-6a1 1 0 0 1-1-1V1a1 1 0 0 1 2 0v5z"/>
    </g>
</svg>
