<svg width="1792" height="1792" xmlns="http://www.w3.org/2000/svg">

 <g>
  <title>background</title>
  <rect fill="none" id="canvas_background" height="402" width="582" y="-1" x="-1"/>
 </g>
 <g>
  <title>Layer 1</title>
  <path  fill="#FFF" stroke="null" id="svg_1" d="m1618.882494,967.177003q0,-32.639095 -45.668308,-32.639095l-937.492807,0q-34.466647,0 -73.672459,20.04973t-61.609132,48.958643l-253.329858,338.514046q-15.509991,22.381094 -15.509991,37.301823q0,32.639095 45.668308,32.639095l937.492807,0q34.466647,0 74.103292,-20.516003t61.178299,-49.424916l253.329858,-338.514046q15.509991,-20.516003 15.509991,-36.369278zm-983.161114,-152.00493l661.759628,0l0,-149.207293q0,-37.301823 -24.126653,-63.413099t-58.5933,-26.111276l-496.319721,0q-34.466647,0 -58.5933,-26.111276t-24.126653,-63.413099l0,-59.682917q0,-37.301823 -24.126653,-63.413099t-58.5933,-26.111276l-275.733178,0q-34.466647,0 -58.5933,26.111276t-24.126653,63.413099l0,795.46138l220.586543,-293.751858q37.913312,-49.424916 99.953277,-81.597738t120.633266,-32.172823zm1093.454386,152.00493q0,57.817826 -39.636644,111.90547l-254.191524,338.514046q-37.051646,49.424916 -99.953277,81.597738t-120.633266,32.172823l-937.492807,0q-79.273289,0 -136.143257,-61.548008t-56.869968,-147.342202l0,-895.243757q0,-85.794193 56.869968,-147.342202t136.143257,-61.548008l275.733178,0q79.273289,0 136.143257,61.548008t56.869968,147.342202l0,29.841459l468.746403,0q79.273289,0 136.143257,61.548008t56.869968,147.342202l0,149.207293l165.439907,0q46.529974,0 85.304952,22.847367t57.731634,65.744463q12.924993,29.841459 12.924993,63.413099z"/>
 </g>
</svg>