<?xml version="1.0" encoding="UTF-8"?>
<svg xmlns="http://www.w3.org/2000/svg" xmlns:xlink="http://www.w3.org/1999/xlink" width="14pt" height="13pt" viewBox="0 0 14 13" version="1.1">
<g id="surface1">
<path style=" stroke:none;fill-rule:nonzero;fill:rgb(0%,0%,0%);fill-opacity:1;" d="M 0.246094 4.445312 L 2.933594 5.484375 L 2.929688 12.949219 L 0.246094 11.925781 L 0.246094 4.445312 "/>
<path style=" stroke:none;fill-rule:nonzero;fill:rgb(0%,0%,0%);fill-opacity:1;" d="M 3.042969 2.632812 C 3.351562 3.578125 2.945312 4.347656 2.132812 4.347656 C 1.320312 4.347656 0.410156 3.578125 0.101562 2.632812 C -0.207031 1.6875 0.203125 0.917969 1.015625 0.917969 C 1.828125 0.917969 2.738281 1.6875 3.042969 2.632812 "/>
<path style=" stroke:none;fill-rule:nonzero;fill:rgb(0%,0%,0%);fill-opacity:1;" d="M 6.355469 4.445312 L 3.667969 5.484375 L 3.671875 12.949219 L 6.355469 11.925781 L 6.355469 4.445312 "/>
<path style=" stroke:none;fill-rule:nonzero;fill:rgb(0%,0%,0%);fill-opacity:1;" d="M 3.539062 2.632812 C 3.230469 3.578125 3.640625 4.347656 4.453125 4.347656 C 5.265625 4.347656 6.175781 3.578125 6.484375 2.632812 C 6.789062 1.6875 6.382812 0.917969 5.570312 0.917969 C 4.757812 0.917969 3.847656 1.6875 3.539062 2.632812 "/>
<path style=" stroke:none;fill-rule:nonzero;fill:rgb(0%,0%,0%);fill-opacity:1;" d="M 7.042969 4.445312 L 9.730469 5.484375 L 9.726562 12.949219 L 7.042969 11.925781 L 7.042969 4.445312 "/>
<path style=" stroke:none;fill-rule:nonzero;fill:rgb(0%,0%,0%);fill-opacity:1;" d="M 9.859375 2.632812 C 10.167969 3.578125 9.757812 4.347656 8.945312 4.347656 C 8.132812 4.347656 7.226562 3.578125 6.917969 2.632812 C 6.609375 1.6875 7.015625 0.917969 7.828125 0.917969 C 8.640625 0.917969 9.550781 1.6875 9.859375 2.632812 "/>
<path style=" stroke:none;fill-rule:nonzero;fill:rgb(0%,0%,0%);fill-opacity:1;" d="M 14.011719 0 L 14.011719 2.566406 C 14.011719 2.566406 13.140625 2.210938 13.035156 3.125 C 13.027344 4.097656 13.035156 4.445312 13.035156 4.445312 L 14.011719 4.117188 L 14.011719 6.367188 L 13.03125 6.730469 L 13.03125 11.976562 L 10.355469 13.011719 L 10.355469 3.734375 C 10.355469 3.734375 10.300781 0.394531 14.011719 0 "/>
</g>
</svg>
