<svg width="16" height="16" xmlns="http://www.w3.org/2000/svg">

 <g>
  <title>background</title>
  <rect fill="none" id="canvas_background" height="18" width="18" y="-1" x="-1"/>
 </g>
 <g>
  <title>Layer 1</title>
  <path stroke="null" fill="#444444" id="pic" d="m15.940298,4.4c0,-1.32 -1.195522,-2.4 -2.656716,-2.4l-10.626865,0c-1.461194,0 -2.656716,1.08 -2.656716,2.4l0,7.2c0,1.32 1.195522,2.4 2.656716,2.4l10.626865,0c1.461194,0 2.656716,-1.08 2.656716,-2.4l0,-7.2zm-11.955224,0c0.730597,0 1.328358,0.54 1.328358,1.2c0,0.66 -0.597761,1.2 -1.328358,1.2s-1.328358,-0.54 -1.328358,-1.2c0,-0.66 0.597761,-1.2 1.328358,-1.2zm10.626865,7.2c0,0.66 -0.597761,1.2 -1.328358,1.2l-10.361194,0c-0.597761,0 -0.863433,-0.66 -0.464925,-1.02l2.391045,-2.16c0.265672,-0.24 0.664179,-0.24 0.929851,0l0.398507,0.36c0.265672,0.24 0.664179,0.24 0.929851,0l4.383582,-3.96c0.265672,-0.24 0.664179,-0.24 0.929851,0l1.992537,1.8c0.132836,0.12 0.199254,0.24 0.199254,0.42l0,3.36z"/>
 </g>
</svg>