<svg width="22" height="22" xmlns="http://www.w3.org/2000/svg">

 <g>
  <title>background</title>
  <rect fill="none" id="canvas_background" height="24" width="24" y="-1" x="-1"/>
 </g>
 <g>
  <title fill="#ffffff">Layer 1</title>
  <path fill="#ffffff" stroke="null" id="svg_1" d="m20.149622,17.778871l-13.714267,0c-0.797593,0 -1.443607,-0.592844 -1.443607,-1.324791l0,-8.61114c0,-0.731947 0.646014,-1.324791 1.443607,-1.324791l13.714267,0c0.797593,0 1.443607,0.592844 1.443607,1.324791l0,8.61114c0,0.731947 -0.646014,1.324791 -1.443607,1.324791z"/>
  <path fill="#ffffff" stroke="null" id="svg_2" d="m4.091403,4.033413l13.083509,0l0,-0.735011c0,-0.812187 -0.650541,-1.470021 -1.453723,-1.470021l-13.81037,0c-0.803182,0 -1.453723,0.657835 -1.453723,1.470021l0,10.29015c0,0.812187 0.650541,1.470021 1.453723,1.470021l0.726862,0l0,-9.55514c0,-0.812187 0.650541,-1.470021 1.453723,-1.470021z"/>
 </g>
</svg>