<svg xmlns="http://www.w3.org/2000/svg" width="192" height="81" viewBox="0 0 192 81">
    <g fill="none" fill-rule="evenodd">
        <path fill="#333" d="M98.297 72.205h1.6l3.31 8.59h-1.613l-.806-2.274h-3.43l-.806 2.274H95l3.297-8.59zm-.53 5.173h2.624l-1.287-3.694h-.037l-1.3 3.694zm11.212-5.173h1.589l3.923 6.328h.024v-6.328h1.432v8.59h-1.589l-3.91-6.316h-.037v6.316h-1.432v-8.59zm13.703 0h1.588l3.923 6.328h.024v-6.328h1.432v8.59h-1.588l-3.911-6.316h-.036v6.316h-1.432v-8.59zm17.42 1.022c-.457 0-.852.093-1.185.277a2.324 2.324 0 0 0-.812.74c-.209.309-.363.66-.463 1.053a4.848 4.848 0 0 0 0 2.406c.1.393.254.744.463 1.053.208.309.48.555.812.74.333.184.728.277 1.185.277.458 0 .853-.093 1.186-.277.333-.185.603-.431.812-.74.209-.309.363-.66.463-1.053a4.848 4.848 0 0 0 0-2.406 3.338 3.338 0 0 0-.463-1.053 2.324 2.324 0 0 0-.812-.74c-.333-.184-.728-.277-1.186-.277zm0-1.227c.642 0 1.218.12 1.727.361.51.24.941.565 1.294.975.353.409.624.886.812 1.431.189.546.283 1.123.283 1.733 0 .618-.094 1.2-.283 1.745a4.333 4.333 0 0 1-.812 1.431c-.353.41-.784.732-1.294.97-.51.236-1.085.354-1.727.354-.641 0-1.217-.118-1.726-.355-.51-.237-.941-.56-1.294-.969a4.333 4.333 0 0 1-.812-1.431 5.304 5.304 0 0 1-.283-1.745c0-.61.094-1.187.283-1.733.188-.545.459-1.022.812-1.431.353-.41.784-.734 1.294-.975.51-.24 1.085-.361 1.726-.361zm9.684.205h6.955v1.299h-2.732v7.291h-1.504v-7.291h-2.72v-1.3zm14.16 0h1.6l3.31 8.59h-1.613l-.807-2.274h-3.43l-.806 2.274h-1.552l3.297-8.59zm-.53 5.173h2.623l-1.287-3.694h-.037l-1.3 3.694zm9.346-5.173h6.956v1.299h-2.732v7.291h-1.504v-7.291h-2.72v-1.3zm12.968 0h6.186v1.299h-4.681v2.25h4.332v1.227h-4.332v2.515H192v1.3h-6.27v-8.591z"/>
        <g fill-rule="nonzero">
            <path fill="#333" d="M81.714 49.425c.06-7.04 5.102-12.822 12.953-12.91 7.535-.084 13.03 5.364 13.178 12.668.147 7.288-5.34 12.942-12.685 13.096-7.654.161-13.29-5.226-13.446-12.854zm20.795-.1c-.025-.377-.04-.754-.078-1.13a6.285 6.285 0 0 0-.12-.742c-.636-2.877-2.24-4.955-5.114-5.81-2.917-.87-5.633-.385-7.837 1.812-2.131 2.123-2.582 4.802-2.138 7.672a7.586 7.586 0 0 0 8.784 6.325c3.966-.633 6.503-3.832 6.503-8.128zM149.832 63.04l-12.463-13.577v12.555h-5.437V35.756l12.494 13.61V36.8h5.406zM28.15 61.775c-1.991 0-3.87.012-5.749-.02-.177-.003-.402-.251-.517-.44-1.98-3.228-3.951-6.462-5.915-9.701a1.266 1.266 0 0 0-.446-.469v10.6h-5.322v-24.68c.15-.025.3-.04.451-.045 2.556.032 5.124-.072 7.665.139 3.183.263 5.875 1.593 7.393 4.586 1.68 3.313 1.379 8.18-2.96 10.654-.072.04-.134.098-.264.194l5.664 9.182zM15.564 41.798V49.9a24.364 24.364 0 0 0 3.072-.444 3.432 3.432 0 0 0 2.643-3.29c.123-1.572-.374-2.904-1.817-3.725-1.194-.679-2.513-.703-3.898-.643zM176.127 62.28c-1.782 0-3.436.012-5.089-.017a.722.722 0 0 1-.512-.376 36.628 36.628 0 0 1-.93-2.326.577.577 0 0 0-.635-.448c-2.199.017-4.398.017-6.596.001a.521.521 0 0 0-.59.403c-.283.807-.589 1.608-.925 2.395a.66.66 0 0 1-.467.352c-1.653.026-3.306.016-5.059.016l10.367-25.766 10.436 25.766zm-8.384-7.438l-2.084-5.337-2.055 5.337h4.139zM76.239 56.102l2.644 4.103c-3.812 2.694-11.702 3.351-16.665-1.6-4.5-4.491-4.833-12.697-.787-17.562 4.561-5.484 12.755-5.568 17.468-2.486l-2.656 4.125a8.286 8.286 0 0 0-4.696-1.42 7.438 7.438 0 0 0-7.474 6.396c-.4 2.563-.058 4.99 1.582 7.083 2.308 2.946 6.768 3.67 10.062 1.69.161-.097.318-.2.522-.329zM177.221 36.767h14.49v4.81h-4.497V62.03h-5.452v-20.4h-4.54zM114.335 36.514h5.548v20.8h7.282v4.969h-12.83z"/>
            <path fill="#4CAF50" d="M10.6 33.365C8.525 10.988 24.03 1.674 35.592.23c2.14-.267 12.444-1.413 13.336 5.742.868 6.971-3 11.718-16.902 14.163C18.125 22.58 13.102 30.987 10.6 33.365z"/>
            <path fill="#795548" d="M8.932 33.365C-1.392 25.615-2.48 14.27 4.192 5.999c3.282-4.07 9.866-5.544 5.193 8.113-2.42 7.073-.383 19.016-.453 19.253z"/>
            <path fill="#FF9800" d="M39.402 42.492a6.393 6.393 0 0 0-5.397 5.91l12.493-2.378c-1.063-2.577-4.016-4.033-7.096-3.532z"/>
            <path fill="#FF9800" d="M57.343 46.842c-.498-5.6-3.263-11.502-12.033-16.442-8.66-4.878-26.883-2.777-33.196 3.704l1.92-.056c1.428 0 2.966-.011 4.533.118 3.775.312 6.755 1.835 8.736 4.447a11.182 11.182 0 0 1 2.262 5.135 12.29 12.29 0 0 1 12.353-6.655A12.05 12.05 0 0 1 52.94 49.136l-18.284 3.497a6.568 6.568 0 0 0 5.25 3.687c2.8.35 5.118-.579 6.788-3.062a744632 744632 0 0 0 4.86 2.47c-2.57 4.828-8.774 7.324-14.94 5.395-.138-.043-.266-.1-.401-.147 1.959 1.54 4.457 2.28 7.676 2.1 9.264-.514 13.95-10.635 13.453-16.234z"/>
        </g>
    </g>
</svg>
