<svg xmlns="http://www.w3.org/2000/svg" width="22" height="24" viewBox="0 0 22 24">
    <g fill="none" fill-rule="evenodd">
        <path fill="#4CAF50" d="M4.031 12.69C3.242 4.18 9.14.637 13.537.088c.814-.102 4.733-.538 5.072 2.184.33 2.65-1.141 4.456-6.428 5.386-5.288.93-7.198 4.127-8.15 5.032z"/>
        <path fill="#FF9800" d="M21.81 17.815c-.19-2.13-1.242-4.374-4.577-6.253-3.294-1.855-10.225-1.056-12.626 1.409l.73-.022c.544 0 1.129-.004 1.725.046 1.436.118 2.569.698 3.322 1.691.512.655.828 1.442.913 2.27.617 4.54 1.873 7.23 5.396 7.034 3.523-.196 5.306-4.045 5.116-6.175z"/>
        <path fill="#795548" fill-rule="nonzero" d="M3.397 12.69C-.53 9.742-.943 5.427 1.594 2.282 2.843.734 5.347.173 3.57 5.367c-.92 2.69-.145 7.233-.172 7.323z"/>
    </g>
</svg>
