<svg xmlns="http://www.w3.org/2000/svg" width="20" height="18" viewBox="0 0 20 18">
    <path fill="#1d70f7" fill-rule="nonzero" d="M17 5V2.5a.5.5 0 0 0-.5-.5h-13a.5.5 0 0 0-.5.5V5a1 1 0 0 1-2 0V2.5A2.5 2.5 0 0 1 3.5 0h13A2.5 2.5 0 0 1 19 2.5V5a1 1 0 0 1-2 0zm2 8v2.5a2.5 2.5 0 0 1-2.5 2.5h-13A2.5 2.5 0 0 1 1 15.5V13a1 1 0 1 1 2 0v2.5a.5.5 0 0 0 .5.5h13a.5.5 0 0 0 .5-.5V13a1 1 0 0 1 2 0zm-5.086-5H19a1 1 0 0 1 0 2h-5.086l1.293 1.293a1 1 0 1 1-1.414 1.414l-3-3a1 1 0 0 1 0-1.414l3-3a1 1 0 0 1 1.414 1.414L13.914 8zm-7.828 2H1a1 1 0 1 1 0-2h5.086L4.793 6.707a1 1 0 0 1 1.414-1.414l3 3a1 1 0 0 1 0 1.414l-3 3a1 1 0 0 1-1.414-1.414L6.086 10z"/>
</svg>
