<?xml version="1.0" ?><svg id="Main" viewBox="0 0 24 24" xmlns="http://www.w3.org/2000/svg"><title/><path d="M20,16.18V15a3,3,0,0,0-3-3H13V10h3a3,3,0,0,0,3-3V5a3,3,0,0,0-3-3H8A3,3,0,0,0,5,5V7a3,3,0,0,0,3,3h3v2H7a3,3,0,0,0-3,3v1.18a3,3,0,1,0,2,0V15a1,1,0,0,1,1-1h4v2.18a3,3,0,1,0,2,0V14h4a1,1,0,0,1,1,1v1.18a3,3,0,1,0,2,0ZM7,7V5A1,1,0,0,1,8,4h8a1,1,0,0,1,1,1V7a1,1,0,0,1-1,1H8A1,1,0,0,1,7,7ZM5,20a1,1,0,1,1,1-1A1,1,0,0,1,5,20Zm7,0a1,1,0,1,1,1-1A1,1,0,0,1,12,20Zm7,0a1,1,0,1,1,1-1A1,1,0,0,1,19,20Z"/></svg>