<svg xmlns="http://www.w3.org/2000/svg" width="20" height="20" viewBox="0 0 20 20">
    <path fill="#000" fill-rule="nonzero" d="M3 0h14a3 3 0 0 1 3 3v14a3 3 0 0 1-3 3H3a3 3 0 0 1-3-3V3a3 3 0 0 1 3-3zm0 2a1 1 0 0 0-1 1v14a1 1 0 0 0 1 1h14a1 1 0 0 0 1-1V3a1 1 0 0 0-1-1H3zm7 11a1 1 0 1 1 0-2 1 1 0 0 1 0 2zm0-4a1 1 0 1 1 0-2 1 1 0 0 1 0 2zm2.668-.445a1 1 0 0 1 .277-1.387l1.5-1A1 1 0 0 1 16 7v6a1 1 0 0 1-2 0V8.866a1 1 0 0 1-1.332-.311zm-9 0a1 1 0 0 1 .277-1.387l1.5-1A1 1 0 0 1 7 7v6a1 1 0 0 1-2 0V8.866a1 1 0 0 1-1.332-.311z"/>
</svg>
