<svg xmlns="http://www.w3.org/2000/svg" width="16" height="19" viewBox="0 0 16 19">
    <path fill="#333" fill-rule="nonzero" d="m11.877005,7.328716c0,2.038914 -1.766517,3.693089 -3.94562,3.693089c-2.179413,0 -3.94562,-1.654175 -3.94562,-3.693089c0,-2.039498 1.766517,-3.693089 3.94562,-3.693089c2.179568,-0.000146 3.94562,1.653446 3.94562,3.693089m4.093748,0c0,-4.079433 -3.53288,-7.386325 -7.891396,-7.386325c-4.358206,0 -7.891396,3.306892 -7.891396,7.386325c0,1.793603 0.683713,3.438152 1.819874,4.71736l6.078346,8.208599l6.167223,-8.328338c0.221493,-0.259458 0.424374,-0.532918 0.6074,-0.820379l0.062353,-0.083715l-0.010237,0c0.671615,-1.087129 1.057832,-2.347523 1.057832,-3.693527"/>
</svg>
