<?xml version="1.0" ?><svg data-name="Layer 27" id="Layer_27" viewBox="0 0 50 50" xmlns="http://www.w3.org/2000/svg"><defs><style>.cls-1{fill:#ffffff;}</style></defs><title/><path class="cls-1" d="M48,25a2,2,0,0,0-1-1.7L43,21l4-2.3a2,2,0,0,0,.1-3.4l-21-13a2,2,0,0,0-2.1,0l-21,13A2,2,0,0,0,3,18.7L7,21,3,23.3a2,2,0,0,0,0,3.5L7,29,3,31.3a2,2,0,0,0-.1,3.4l21,13a2,2,0,0,0,2.1,0l21-13a2,2,0,0,0-.1-3.4L43,29l4-2.3A2,2,0,0,0,48,25ZM25,6.4L42.1,16.9,25,26.7,7.9,16.9ZM24,30.7L25,31l1-.3,13-7.4L42,25,25,34.7,8,25l3-1.7Zm18.1,2.3L25,43.6,7.9,33.1,11,31.3l13,7.4L25,39l1-.3,13-7.4Z"/></svg>