<svg width="16" height="16" xmlns="http://www.w3.org/2000/svg" class="svg-inline--fa fa-paragraph fa-w-14">

 <g>
  <title>background</title>
  <rect fill="none" id="canvas_background" height="18" width="18" y="-1" x="-1"/>
 </g>
 <g>
  <title>Layer 1</title>
  <path stroke="null" id="svg_1" d="m15.81042,0.568373l0,1.136753a0.6007,0.568371 0 0 1 -0.6007,0.568371l-1.80211,0l0,13.072631a0.6007,0.568371 0 0 1 -0.6007,0.568381l-1.20141,0a0.6007,0.568371 0 0 1 -0.6007,-0.568381l0,-13.072631l-1.20141,0l0,13.072631a0.6007,0.568371 0 0 1 -0.6007,0.568381c-0.400477,-0.025252 -0.800943,-0.050514 -1.20141,-0.075766a0.6007,0.568371 0 0 1 -0.6007,-0.492616l0,-3.978619l-1.20141,0a6.007029,5.683754 0 0 1 0,-11.367507l9.010549,0a0.6007,0.568371 0 0 1 0.6007,0.568371z" fill="#333"/>
 </g>
</svg>