<svg xmlns="http://www.w3.org/2000/svg" width="16" height="16" viewBox="0 0 16 16">
    <path fill="#333" fill-rule="nonzero" d="M3 2h-.444A.556.556 0 0 0 2 2.556v10.888c0 .307.249.556.556.556H3V9a1 1 0 0 1 1-1h8a1 1 0 0 1 1 1v5h.444a.556.556 0 0 0 .556-.556v-8.14L10.697 2H5v2h5a1 1 0 0 1 0 2H4a1 1 0 0 1-1-1V2zm2 12h6v-4H5v4zm8.444 2H2.556A2.556 2.556 0 0 1 0 13.444V2.556A2.556 2.556 0 0 1 2.556 0h8.555a1 1 0 0 1 .707.293l3.89 3.889a1 1 0 0 1 .292.707v8.555A2.556 2.556 0 0 1 13.444 16z"/>
</svg>
