<svg width="640" height="60.00000000000001" xmlns="http://www.w3.org/2000/svg" xmlns:svg="http://www.w3.org/2000/svg" xmlns:xlink="http://www.w3.org/1999/xlink">
 <g>
  <title>background</title>
  <rect x="-1" y="-1" width="157.01529" height="16.53268" id="canvas_background" fill="none"/>
 </g>
 <defs>
  <symbol id="svg_11" viewBox="0 0 15 17" height="17" width="15" xmlns="http://www.w3.org/2000/svg">
   <path d="m8.524,12l-2.982,0l-0.55,4.132a1,1 0 0 1 -1.983,-0.264l0.515,-3.868l-2.524,0a1,1 0 1 1 0,-2l2.791,0l0.4,-3l-3.191,0a1,1 0 1 1 0,-2l3.458,0l0.55,-4.132a1,1 0 0 1 1.983,0.264l-0.515,3.868l2.982,0l0.55,-4.132a1,1 0 0 1 1.983,0.264l-0.515,3.868l2.524,0a1,1 0 1 1 0,2l-2.791,0l-0.4,3l3.191,0a1,1 0 1 1 0,2l-3.458,0l-0.55,4.132a1,1 0 0 1 -1.983,-0.264l0.515,-3.868zm0.267,-2l0.4,-3l-2.981,0l-0.4,3l2.98,0l0.001,0z" fill-rule="nonzero" fill="#333"/>
  </symbol>
 </defs>
 <g>
  <title>Layer 1</title>
  <g id="svg_9" stroke="null">
   <path fill="#333333" fill-rule="nonzero" d="m610.35593,24.87424l2.23911,-2.21915a4.8747,4.82773 0 1 1 2.2976,2.27547l-2.23911,2.22076a4.06225,4.0231 0 0 1 -5.26629,5.21555l-2.24236,2.21914a4.8747,4.82773 0 1 1 -2.29761,-2.27547l2.24236,-2.22075a4.06225,4.0231 0 0 1 5.2663,-5.21555zm-9.60965,13.40176a1.6249,1.60924 0 1 0 0,-3.21848a1.6249,1.60924 0 0 0 0,3.21848zm16.24898,-16.09241a1.6249,1.60924 0 1 0 0,-3.21849a1.6249,1.60924 0 0 0 0,3.21849z" id="svg_10" stroke="null"/>
  </g>
  <g stroke="null" id="svg_3">
   <path stroke="null" id="svg_8" d="m274.79899,37.86739c-0.881,1.00565 -1.82329,1.919 -2.76558,2.72765c-0.56818,0.48905 -1.01634,0.83758 -1.2832,1.03045a1.27681,1.3776 0 0 1 -1.41726,0a26.92033,29.04538 0 0 1 -4.04877,-3.7581c-2.59704,-2.95771 -4.18029,-6.089 -4.18029,-9.32775a8.93769,9.64322 0 0 1 17.87538,0c0,3.23737 -1.58325,6.37004 -4.18029,9.32775l0.00001,0zm-4.75741,-5.19494a3.83044,4.13281 0 1 0 0,-8.26562a3.83044,4.13281 0 0 0 0,8.26562z" fill-rule="nonzero" fill="#333333"/>
  </g>
  <g stroke="null" id="svg_18">
   <path stroke="null" id="svg_19" d="m33.72467,23.97614a4.87523,4.87499 0 1 1 2.29786,2.29775l-9.7472,9.74998a4.87523,4.87499 0 1 1 -2.29786,-2.29775l9.7472,-9.74998zm-11.85005,15.77385a1.62508,1.625 0 1 0 0,-3.24999a1.62508,1.625 0 0 0 0,3.24999zm16.25075,-16.24997a1.62508,1.625 0 1 0 0,-3.24999a1.62508,1.625 0 0 0 0,3.24999z" fill-rule="nonzero" fill="#333"/>
  </g>
  <g id="svg_4" stroke="null">
   <path fill="#333333" fill-rule="evenodd" d="m86.61403,20.19693l10.35281,3.45337a3.41283,2.96554 0 0 1 2.18421,2.92402l-0.58018,9.62318a3.41283,2.96554 0 0 1 -2.52549,2.70754l-10.70945,2.49402a3.41283,2.96554 0 0 1 -3.74558,-1.24849l-6.0407,-8.0811a3.41283,2.96554 0 0 1 0.2116,-3.48154l6.97923,-7.48799a3.41283,2.96554 0 0 1 3.87356,-0.90301l-0.00001,0z" id="svg_5" stroke="null"/>
  </g>
  <g id="svg_22">
   <path id="circle" d="m221,30c0,6.078 -4.926,11 -11,11s-11,-4.922 -11,-11c0,-6.074 4.926,-11 11,-11s11,4.926 11,11z" fill="#333333"/>
  </g>
  <g id="disabled" fill="#bbb">
   <use xlink:href="#edit" id="edit-disabled"/>
   <use xlink:href="#remove" id="remove-disabled"/>
  </g>
  <g id="svg_6" stroke="null">
   <path id="svg_7" d="m550.97599,34.6935a14.63199,15.75827 0 0 0 0.65859,-4.6935c0,-1.6112 -0.22441,-3.18913 -0.65859,-4.6935l-8.71448,4.6935l8.71448,4.6935zm2.94006,-10.96844c0.63907,1.99824 0.9708,4.11382 0.9708,6.27494c0,2.16287 -0.33173,4.27669 -0.9708,6.27494l8.20224,4.41855a1.62613,1.75131 0 0 1 -1.45376,3.13134l-22.76594,-12.25915a1.62613,1.75131 0 0 1 0,-3.13134l22.76594,-12.25915a1.62613,1.75131 0 0 1 1.45376,3.13134l-8.20224,4.41855l0,-0.00002z" fill-rule="nonzero" fill="#333333" stroke="null"/>
  </g>
  <g id="svg_1" stroke="null">
   <rect id="svg_2" rx="2" fill-rule="evenodd" fill="#333333" y="19.66665" x="139.99995" height="20.33335" width="20.00003" stroke="null"/>
  </g>
  <use x="156.47922" y="-56.26496" transform="matrix(0.434951372795452,0,0,0.37989158204122614,123.03512779516446,40.42534198051169) " xlink:href="#svg_11" id="svg_12"/>
  <g id="svg_13"/>
 </g>
</svg>