<svg width="16" height="16" xmlns="http://www.w3.org/2000/svg">

 <g>
  <title>background</title>
  <rect fill="none" id="canvas_background" height="18" width="18" y="-1" x="-1"/>
 </g>
 <g>
  <title>Layer 1</title>
  <path fill="#ffffff" stroke="null" id="svg_1" d="m3.822871,4.271353q0,-0.445749 -0.307287,-0.761138t-0.741585,-0.315389t-0.741585,0.315389t-0.307287,0.761138t0.307287,0.761138t0.741585,0.315389t0.741585,-0.315389t0.307287,-0.761138zm8.743327,4.844368q0,0.445749 -0.303189,0.756932l-4.023405,4.137898q-0.319578,0.311183 -0.745682,0.311183q-0.434298,0 -0.737488,-0.311183l-5.858931,-6.021818q-0.311384,-0.311183 -0.528533,-0.849446t-0.217149,-0.984012l0,-3.49871q0,-0.437339 0.311384,-0.756932t0.737488,-0.319594l3.408832,0q0.434298,0 0.958734,0.222875t0.835819,0.542468l5.858931,6.004998q0.303189,0.328004 0.303189,0.765343zm3.146614,0q0,0.445749 -0.303189,0.756932l-4.023405,4.137898q-0.319578,0.311183 -0.745682,0.311183q-0.294995,0 -0.483464,-0.117745t-0.434298,-0.378466l3.851325,-3.95287q0.303189,-0.311183 0.303189,-0.756932q0,-0.437339 -0.303189,-0.765343l-5.858931,-6.004998q-0.311384,-0.319594 -0.835819,-0.542468t-0.958734,-0.222875l1.835525,0q0.434298,0 0.958734,0.222875t0.835819,0.542468l5.858931,6.004998q0.303189,0.328004 0.303189,0.765343z"/>
 </g>
</svg>